<svg xmlns="http://www.w3.org/2000/svg" width="28.8" height="28.8" viewBox="0 0 32 32" fill="none">
  <path d="M13.504 6.79999L16.192 9.20008H23.36C24.7936 9.20008 25.4507 10.6001 25.6 11.5334V28.0001H5.44001C4.80001 28.0001 3.20001 27.2001 3.20001 25.6667V6.79999H13.504Z" fill="#9AED59"/>
    <path d="M9.03552 24.2C9.03552 26.48 7.10477 27.5778 5.20001 28H25.3714C26.8953 28 28.6617 27.5778 28.7366 26C28.8793 22.9917 28.7366 16.79 28.7366 15.65C28.7366 13.2 26.8369 12.8 25.7386 12.8H12.0335C9.03552 12.8 8.98025 14.8 9.03552 16.125V24.2Z" fill="#F7FEF2"/>
    <path fill-rule="evenodd" clip-rule="evenodd" d="M9.03552 16.125V24.2C9.03552 24.9093 8.84863 25.5042 8.53379 26C7.83666 27.0977 6.51217 27.7091 5.20001 28H25.3714C26.8953 28 28.6617 27.5778 28.7366 26C28.8468 23.6776 28.7868 19.4519 28.7537 17.1213C28.744 16.4329 28.7366 15.9099 28.7366 15.65C28.7366 13.2 26.8369 12.8 25.7386 12.8H12.0335C9.03552 12.8 8.98025 14.8 9.03552 16.125ZM10.7405 26H25.3714C25.6645 26 25.9469 25.9794 26.1971 25.9372C26.4522 25.8942 26.6318 25.8358 26.7436 25.783C26.7434 25.7831 26.7439 25.7829 26.7436 25.783C26.8427 23.5134 26.7877 19.5658 26.755 17.2534C26.7446 16.5182 26.7366 15.9482 26.7366 15.65C26.7366 15.2989 26.6698 15.1363 26.6417 15.0813C26.6166 15.0321 26.5898 15.0034 26.5436 14.9727C26.4851 14.9339 26.3835 14.8867 26.226 14.8508C26.0696 14.8151 25.8983 14.8 25.7386 14.8H12.0335C11.4972 14.8 11.2517 14.8905 11.1709 14.93C11.1447 14.9428 11.132 14.9519 11.1277 14.9554C11.127 14.9564 11.126 14.958 11.1246 14.9604C11.1105 14.985 11.0697 15.0743 11.0452 15.2816C11.0204 15.4908 11.0209 15.7337 11.0338 16.0416C11.0349 16.0694 11.0355 16.0972 11.0355 16.125V24.2C11.0355 24.8552 10.9296 25.4556 10.7405 26ZM11.1266 14.9563C11.1255 14.9572 11.1257 14.9571 11.1266 14.9563V14.9563Z" fill="black"/>
</svg>